<?xml version="1.0" standalone="no"?>
<!DOCTYPE svg PUBLIC "-//W3C//DTD SVG 20010904//EN"
 "http://www.w3.org/TR/2001/REC-SVG-20010904/DTD/svg10.dtd">
<svg version="1.0" xmlns="http://www.w3.org/2000/svg"
 width="880.000000pt" height="880.000000pt" viewBox="0 0 880.000000 880.000000"
 preserveAspectRatio="xMidYMid meet">
<metadata>
Created by potrace 1.14, written by Peter Selinger 2001-2017
</metadata>
<g transform="translate(0.000000,880.000000) scale(0.100000,-0.100000)"
fill="#000000" stroke="none">
<path d="M954 6015 l0 -1766 126 3 125 3 0 1638 0 1637 3142 0 3143 0 0 -3143
0 -3143 -565 0 -565 1 0 1737 0 1738 -67 0 c-271 2 -563 -1 -591 -6 -36 -7
-91 -56 -93 -82 -3 -37 3 -86 12 -104 6 -11 29 -28 52 -39 37 -16 67 -19 240
-19 l197 0 0 -702 -1 -703 -37 45 c-69 85 -227 237 -307 296 -215 157 -444
234 -720 240 -167 3 -261 -8 -401 -51 -91 -27 -276 -110 -282 -126 -2 -5 -8
-9 -14 -9 -12 0 -84 -49 -153 -105 -139 -112 -260 -265 -350 -445 -15 -30 -32
-64 -37 -74 -27 -51 -86 -248 -95 -316 -3 -19 -9 -55 -14 -80 -14 -76 -3 -344
20 -445 52 -237 150 -444 292 -620 193 -239 436 -384 774 -461 62 -14 378 -13
458 2 313 56 602 235 812 503 l50 64 3 -246 2 -245 815 0 814 1 1 3393 0 3394
-3393 0 -3393 0 0 -1765z m4336 -2648 c184 -49 345 -142 485 -282 209 -208
315 -447 332 -749 14 -249 -49 -489 -180 -690 -87 -132 -263 -299 -382 -363
-22 -11 -56 -29 -75 -40 -48 -26 -165 -64 -241 -78 -90 -17 -277 -23 -349 -10
-238 42 -415 127 -574 275 -244 229 -364 506 -364 840 0 328 105 587 329 811
168 169 345 263 573 304 115 21 331 12 446 -18z"/>
<path d="M654 3557 c-88 -18 -129 -100 -89 -176 28 -56 68 -65 287 -65 109 -1
198 -3 199 -6 1 -3 2 -385 3 -850 1 -465 6 -867 10 -895 32 -209 174 -445 331
-550 65 -43 160 -81 250 -99 80 -17 342 -20 420 -5 28 5 64 12 80 15 111 19
293 85 413 151 122 66 287 183 370 262 l22 22 0 -185 0 -184 263 2 c291 1 303
3 345 66 26 39 25 83 -3 126 -30 46 -66 56 -214 57 l-136 2 -5 1160 -5 1160
-391 0 -392 -1 -36 -27 c-55 -42 -66 -113 -27 -167 35 -49 77 -55 350 -55
l251 0 0 -807 0 -807 -87 -87 c-171 -170 -341 -288 -530 -368 -75 -31 -215
-73 -274 -81 -24 -3 -57 -8 -72 -11 -16 -3 -74 -6 -130 -6 -163 0 -276 41
-379 140 -74 70 -114 133 -146 230 l-25 77 -3 980 c-1 539 -2 982 -3 985 -2 9
-605 6 -647 -3z"/>
</g>
</svg>
